<svg width="48" height="47" viewBox="0 0 48 47" fill="none" xmlns="http://www.w3.org/2000/svg">
<g clip-path="url(#clip0_272_1416)">
<path d="M40.0312 0.125H7.96875C3.56773 0.125 0 3.69273 0 8.09375V38.9562C0 43.3573 3.56773 46.925 7.96875 46.925H40.0312C44.4323 46.925 48 43.3573 48 38.9562V8.09375C48 3.69273 44.4323 0.125 40.0312 0.125Z" fill="#330000"/>
<path d="M23.2595 28.2107H15.8213L14.3078 32.9119C14.2872 32.9976 14.2374 33.0735 14.1668 33.1264C14.0963 33.1793 14.0095 33.206 13.9214 33.2017H10.154C9.93928 33.2017 9.86409 33.0836 9.92859 32.8474L16.3687 14.3002C16.433 14.1071 16.4975 13.8872 16.5618 13.6402C16.6462 13.2105 16.6893 12.774 16.6906 12.3362C16.6862 12.3056 16.689 12.2743 16.6988 12.245C16.7086 12.2156 16.725 12.189 16.7469 12.1671C16.7688 12.1452 16.7954 12.1287 16.8248 12.1189C16.8541 12.1091 16.8853 12.1063 16.916 12.1106H22.0358C22.1858 12.1106 22.2717 12.1644 22.2935 12.2719L29.6028 32.8796C29.6673 33.0945 29.6028 33.2019 29.4097 33.2017H25.2235C25.1516 33.2097 25.0793 33.1912 25.0201 33.1498C24.9608 33.1083 24.9187 33.0466 24.9016 32.9764L23.2595 28.2107ZM16.9805 24.1536H22.0681L21.9955 23.9141L21.8791 23.535L21.796 23.2687L21.6635 22.8495L21.3817 21.9669L21.1338 21.1845L20.4901 19.1464C20.3299 18.6397 20.1761 18.1311 20.0288 17.6205L19.9111 17.2061L19.7735 16.7162L19.5635 15.9568L19.5241 15.8137H19.492C19.3309 16.5866 19.1347 17.3518 18.904 18.1069L18.4263 19.6436L18.1634 20.4926L17.8981 21.3521C17.8501 21.5074 17.8025 21.6609 17.7547 21.8126L17.6122 22.2622L17.4704 22.7014L17.3294 23.1296L17.1892 23.5472C17.1427 23.6846 17.0962 23.8202 17.0498 23.9541L16.9805 24.1536ZM33.9494 15.5239C33.621 15.5371 33.2935 15.4808 32.9883 15.3587C32.6832 15.2366 32.4072 15.0515 32.1785 14.8155C31.9504 14.5692 31.7732 14.2803 31.6571 13.9653C31.541 13.6503 31.4884 13.3155 31.5022 12.9801C31.4905 12.648 31.549 12.3172 31.6738 12.0093C31.7987 11.7014 31.987 11.4233 32.2267 11.1932C32.6889 10.7495 33.3044 10.5012 33.9451 10.5L34.0137 10.5008C34.7866 10.5008 35.3932 10.7314 35.8332 11.193C36.0553 11.4328 36.2279 11.7141 36.3412 12.0208C36.4544 12.3274 36.5061 12.6534 36.4932 12.9801C36.5067 13.3168 36.4524 13.6528 36.3335 13.9682C36.2146 14.2835 36.0335 14.5717 35.801 14.8157C35.5662 15.0471 35.2876 15.2291 34.9814 15.3512C34.6752 15.4732 34.3477 15.5328 34.0182 15.5263L33.9494 15.5239ZM31.7275 32.8796V17.4881C31.7275 17.295 31.813 17.1982 31.9852 17.1982H35.9459C36.1175 17.1982 36.2033 17.2948 36.2035 17.4881V32.8796C36.2035 33.0945 36.1177 33.2019 35.9459 33.2017H32.0174C31.8344 33.2017 31.738 33.1054 31.7285 32.9126L31.7275 32.8796Z" fill="#FF9A00"/>
</g>
<defs>
<clipPath id="clip0_272_1416">
<rect width="48" height="46.875" fill="white" transform="translate(0 0.125)"/>
</clipPath>
</defs>
</svg>
