<svg width="38" height="24" viewBox="0 0 38 24" fill="none" xmlns="http://www.w3.org/2000/svg">
<path d="M22.375 3.875C22.375 3.37772 22.5725 2.9008 22.9242 2.54917C23.2758 2.19754 23.7527 2 24.25 2H34.25C34.7473 2 35.2242 2.19754 35.5758 2.54917C35.9275 2.9008 36.125 3.37772 36.125 3.875C36.125 4.37228 35.9275 4.84919 35.5758 5.20082C35.2242 5.55246 34.7473 5.75 34.25 5.75H24.25C23.7527 5.75 23.2758 5.55246 22.9242 5.20082C22.5725 4.84919 22.375 4.37228 22.375 3.875ZM19.25 16.6875C19.25 17.6314 19.0641 18.566 18.7029 19.438C18.3417 20.3101 17.8123 21.1024 17.1448 21.7698C16.4774 22.4373 15.6851 22.9667 14.813 23.3279C13.941 23.6891 13.0064 23.875 12.0625 23.875H2.375C1.87772 23.875 1.40081 23.6775 1.04917 23.3258C0.697544 22.9742 0.5 22.4973 0.5 22V2C0.5 1.50272 0.697544 1.02581 1.04917 0.674174C1.40081 0.322544 1.87772 0.125 2.375 0.125H10.1875C11.3845 0.126048 12.5584 0.454456 13.5821 1.07468C14.6059 1.6949 15.4405 2.58332 15.9957 3.64377C16.5509 4.70422 16.8054 5.89632 16.7318 7.09104C16.6582 8.28576 16.2593 9.43759 15.5781 10.4219C16.6914 11.0462 17.6183 11.9556 18.2636 13.0568C18.9089 14.158 19.2494 15.4112 19.25 16.6875ZM4.25 9.5H10.1875C10.9334 9.5 11.6488 9.20368 12.1762 8.67624C12.7037 8.14879 13 7.43342 13 6.6875C13 5.94158 12.7037 5.22621 12.1762 4.69876C11.6488 4.17132 10.9334 3.875 10.1875 3.875H4.25V9.5ZM15.5 16.6875C15.4959 15.7771 15.1324 14.9051 14.4886 14.2614C13.8449 13.6176 12.9729 13.2541 12.0625 13.25H4.25V20.125H12.0625C12.9729 20.1209 13.8449 19.7574 14.4886 19.1136C15.1324 18.4699 15.4959 17.5979 15.5 16.6875ZM37.375 15.75C37.375 16.2473 37.1775 16.7242 36.8258 17.0758C36.4742 17.4275 35.9973 17.625 35.5 17.625H25.2969C25.6517 18.3731 26.2115 19.0051 26.9113 19.4476C27.6111 19.8902 28.422 20.1251 29.25 20.125C29.9109 20.1305 30.5639 19.9806 31.1562 19.6875C31.6038 19.4699 32.1194 19.4391 32.5898 19.6017C33.0601 19.7643 33.4465 20.1071 33.6641 20.5547C33.8816 21.0022 33.9125 21.5179 33.7499 21.9882C33.5872 22.4585 33.2444 22.8449 32.7969 23.0625C31.2103 23.8323 29.4163 24.0651 27.6858 23.7256C25.9553 23.386 24.3822 22.4927 23.2041 21.1805C22.026 19.8682 21.3068 18.2083 21.1551 16.4513C21.0034 14.6944 21.4275 12.9358 22.3633 11.441C23.2991 9.94629 24.6958 8.79661 26.3426 8.16556C27.9893 7.53451 29.7966 7.45637 31.4917 7.94292C33.1867 8.42947 34.6775 9.4543 35.7388 10.8627C36.8001 12.271 37.3744 13.9865 37.375 15.75ZM33.2031 13.875C32.8484 13.1268 32.2886 12.4947 31.5888 12.052C30.889 11.6094 30.078 11.3744 29.25 11.3744C28.422 11.3744 27.611 11.6094 26.9112 12.052C26.2114 12.4947 25.6516 13.1268 25.2969 13.875H33.2031Z" fill="#58C5AC"/>
</svg>
