<svg width="48" height="49" viewBox="0 0 48 49" fill="none" xmlns="http://www.w3.org/2000/svg">
<path d="M31.2801 12.0102C31.1804 10.3363 30.7002 8.70725 29.8761 7.24688L28.4474 8.15488L27.5588 6.65088C26.132 7.53251 24.9252 8.72794 24.0301 10.1462M9.50542 20.7735C8.41786 19.497 7.63581 17.9892 7.21875 16.3649L8.87808 16.0302L8.47742 14.3302C10.1171 13.978 11.8155 14.0045 13.4434 14.4075M25.0914 38.1655C26.1709 39.449 27.5289 40.4693 29.0621 41.1489L29.6667 39.5669L31.2774 40.2429C31.8952 38.6838 32.1492 37.0043 32.0201 35.3322M38.6747 26.3415C40.1281 25.5047 41.3714 24.3473 42.3101 22.9575L40.8594 22.0842L41.8087 20.6175C40.3827 19.735 38.7741 19.1894 37.1054 19.0222M14.2867 36.1562C12.6587 36.5596 10.96 36.5863 9.32008 36.2342L9.76208 34.5995L8.06208 34.1989C8.4791 32.5745 9.26116 31.0667 10.3487 29.7902M19.7134 22.3002C17.5647 20.5315 15.3587 17.4295 17.3547 12.0775L18.8954 12.7342" stroke="black" stroke-width="2" stroke-linecap="round" stroke-linejoin="round"/>
<path d="M18.827 12.762L19.4837 11.2207C24.6304 13.6987 25.1877 17.464 24.8637 20.2274L25.001 20.1727C25.8344 17.6827 27.8904 14.86 33.4164 14.7114L33.351 16.3334L34.973 16.3987C34.8698 18.2671 34.2046 20.0607 33.0646 21.5446C31.9246 23.0285 30.363 24.1334 28.5844 24.7147M19.7137 22.3C17.387 21.0814 14.0184 20.4427 9.92969 24.1627L11.1004 25.2874L9.97569 26.458C11.3443 27.7342 13.0664 28.5672 14.9164 28.8479C16.7664 29.1287 18.6581 28.844 20.3437 28.0314" stroke="black" stroke-width="2" stroke-linecap="round" stroke-linejoin="round"/>
<path d="M20.2751 28.059C18.8412 29.1932 17.7806 30.7316 17.2303 32.4751C16.6801 34.2186 16.6655 36.0871 17.1885 37.839L18.7551 37.3683L19.2258 38.935C27.3025 36.0036 25.1431 29.0523 25.1431 29.0523L25.6245 28.859C25.6245 28.859 28.9911 35.2443 36.8065 31.8596L36.1298 30.3763L37.5851 29.631C36.7386 28.014 35.4319 26.684 33.8301 25.8091C32.2283 24.9341 30.4032 24.5534 28.5851 24.715" stroke="black" stroke-width="2" stroke-linecap="round" stroke-linejoin="round"/>
<path d="M31.2801 12.0102C31.1804 10.3363 30.7002 8.70725 29.8761 7.24688L28.4474 8.15488L27.5588 6.65088C26.132 7.53251 24.9252 8.72794 24.0301 10.1462M9.50542 20.7735C8.41786 19.497 7.63581 17.9892 7.21875 16.3649L8.87808 16.0302L8.47742 14.3302C10.1171 13.978 11.8155 14.0045 13.4434 14.4075M25.0914 38.1655C26.1709 39.449 27.5289 40.4693 29.0621 41.1489L29.6667 39.5669L31.2774 40.2429C31.8952 38.6838 32.1492 37.0043 32.0201 35.3322M38.6747 26.3415C40.1281 25.5047 41.3714 24.3473 42.3101 22.9575L40.8594 22.0842L41.8087 20.6175C40.3827 19.735 38.7741 19.1894 37.1054 19.0222M14.2867 36.1562C12.6587 36.5596 10.96 36.5863 9.32008 36.2342L9.76208 34.5995L8.06208 34.1989C8.4791 32.5745 9.26116 31.0667 10.3487 29.7902M19.7134 22.3002C17.5647 20.5315 15.3587 17.4295 17.3547 12.0775L18.8954 12.7342" stroke="#D22F27" stroke-width="2" stroke-linecap="round" stroke-linejoin="round"/>
<path d="M18.827 12.762L19.4837 11.2207C24.6304 13.6987 25.1877 17.464 24.8637 20.2274L25.001 20.1727C25.8344 17.6827 27.8904 14.86 33.4164 14.7114L33.351 16.3334L34.973 16.3987C34.8698 18.2671 34.2046 20.0607 33.0646 21.5446C31.9246 23.0285 30.363 24.1334 28.5844 24.7147M19.7137 22.3C17.387 21.0814 14.0184 20.4427 9.92969 24.1627L11.1004 25.2874L9.97569 26.458C11.3443 27.7342 13.0664 28.5672 14.9164 28.8479C16.7664 29.1287 18.6581 28.844 20.3437 28.0314" stroke="#D22F27" stroke-width="2" stroke-linecap="round" stroke-linejoin="round"/>
<path d="M20.2751 28.059C18.8412 29.1932 17.7806 30.7316 17.2303 32.4751C16.6801 34.2186 16.6655 36.0871 17.1885 37.839L18.7551 37.3683L19.2258 38.935C27.3025 36.0036 25.1431 29.0523 25.1431 29.0523L25.6245 28.859C25.6245 28.859 28.9911 35.2443 36.8065 31.8596L36.1298 30.3763L37.5851 29.631C36.7386 28.014 35.4319 26.684 33.8301 25.8091C32.2283 24.9341 30.4032 24.5534 28.5851 24.715" stroke="#D22F27" stroke-width="2" stroke-linecap="round" stroke-linejoin="round"/>
</svg>
