<svg width="78" height="78" viewBox="0 0 78 78" fill="none" xmlns="http://www.w3.org/2000/svg">
<circle cx="39" cy="39" r="39" fill="#F2F2F2"/>
<path d="M30.3633 55.6665V50.9048C29.8667 45.9431 24 43.2865 24 35.6665C24 28.0498 28.545 22.2398 37.6367 22.3331C44.1817 22.4031 50.3633 26.1431 50.3633 33.7631L54 39.4765C54 43.2865 50.3633 43.2865 50.3633 43.2865C50.3633 43.2865 51.2733 52.8098 43.09 52.8098V55.6665" stroke="#1D4145" stroke-width="1.5" stroke-linecap="round" stroke-linejoin="round"/>
<path d="M37.3333 38.9997C38.2174 38.9997 39.0652 38.6485 39.6904 38.0234C40.3155 37.3982 40.6667 36.5504 40.6667 35.6663C40.6667 34.7823 40.3155 33.9344 39.6904 33.3093C39.0652 32.6842 38.2174 32.333 37.3333 32.333C36.4493 32.333 35.6014 32.6842 34.9763 33.3093C34.3512 33.9344 34 34.7823 34 35.6663C34 36.5504 34.3512 37.3982 34.9763 38.0234C35.6014 38.6485 36.4493 38.9997 37.3333 38.9997Z" stroke="#1D4145" stroke-width="1.5" stroke-linecap="round" stroke-linejoin="round"/>
<path d="M37.334 40.6665C38.6601 40.6665 39.9318 40.1397 40.8695 39.202C41.8072 38.2644 42.334 36.9926 42.334 35.6665C42.334 34.3404 41.8072 33.0687 40.8695 32.131C39.9318 31.1933 38.6601 30.6665 37.334 30.6665C36.0079 30.6665 34.7361 31.1933 33.7984 32.131C32.8608 33.0687 32.334 34.3404 32.334 35.6665C32.334 36.9926 32.8608 38.2644 33.7984 39.202C34.7361 40.1397 36.0079 40.6665 37.334 40.6665Z" stroke="#1D4145" stroke-width="1.5" stroke-linecap="round" stroke-linejoin="round"/>
</svg>
