<svg width="33" height="31" viewBox="0 0 33 31" fill="none" xmlns="http://www.w3.org/2000/svg">
<path d="M7.56706 4.33305C7.56662 5.2171 7.215 6.06477 6.58957 6.68958C5.96414 7.31439 5.11611 7.66516 4.23206 7.66471C3.348 7.66427 2.50033 7.31266 1.87552 6.68722C1.25071 6.06179 0.899949 5.21377 0.900391 4.32971C0.900833 3.44566 1.25245 2.59799 1.87788 1.97318C2.50331 1.34837 3.35134 0.997605 4.23539 0.998047C5.11945 0.998489 5.96712 1.3501 6.59193 1.97554C7.21673 2.60097 7.5675 3.44899 7.56706 4.33305ZM7.66706 10.133H1.00039V30.9997H7.66706V10.133ZM18.2004 10.133H11.5671V30.9997H18.1337V20.0497C18.1337 13.9497 26.0837 13.383 26.0837 20.0497V30.9997H32.6671V17.783C32.6671 7.49971 20.9004 7.88305 18.1337 12.933L18.2004 10.133Z" fill="white"/>
</svg>
