<svg width="33" height="31" viewBox="0 0 33 31" fill="none" xmlns="http://www.w3.org/2000/svg">
<path d="M7.56706 4.33354C7.56662 5.21759 7.215 6.06526 6.58957 6.69007C5.96414 7.31488 5.11611 7.66564 4.23206 7.6652C3.348 7.66476 2.50033 7.31315 1.87552 6.68771C1.25071 6.06228 0.899949 5.21426 0.900391 4.3302C0.900833 3.44615 1.25245 2.59848 1.87788 1.97367C2.50331 1.34886 3.35134 0.998094 4.23539 0.998536C5.11945 0.998978 5.96712 1.35059 6.59193 1.97602C7.21673 2.60146 7.5675 3.44948 7.56706 4.33354ZM7.66706 10.1335H1.00039V31.0002H7.66706V10.1335ZM18.2004 10.1335H11.5671V31.0002H18.1337V20.0502C18.1337 13.9502 26.0837 13.3835 26.0837 20.0502V31.0002H32.6671V17.7835C32.6671 7.5002 20.9004 7.88354 18.1337 12.9335L18.2004 10.1335Z" fill="#58C5AC"/>
</svg>
