<svg width="48" height="48" viewBox="0 0 48 48" fill="none" xmlns="http://www.w3.org/2000/svg">
<path fill-rule="evenodd" clip-rule="evenodd" d="M5.56836 18.3936V37.6761H42.4309V18.3936L23.9996 27.5586L5.56836 18.3936Z" fill="#FCC21B"/>
<path fill-rule="evenodd" clip-rule="evenodd" d="M5.56836 10.3237V15.45L23.9996 24.6112L42.4309 15.45V10.3237H5.56836Z" fill="#FCC21B"/>
<path d="M24.0084 14.5427C29.8584 14.5427 33.7996 18.4652 33.8371 24.3114C33.8409 24.3602 33.8409 24.4277 33.8446 24.5064C33.8484 24.9864 33.7659 25.9652 33.2109 26.9139C33.1621 27.0039 33.1134 27.0939 33.0534 27.1802C32.4421 28.0577 31.2609 28.6277 30.0346 28.6314H30.0271C28.8646 28.6314 27.7996 28.1552 27.0871 27.3264C26.2471 28.3352 24.9609 28.9914 23.3146 28.9952H23.2996C21.4471 28.9952 20.0259 28.1852 19.2121 26.9514C18.7584 26.2614 18.4959 25.4364 18.4509 24.5477C18.4433 24.4604 18.4395 24.3728 18.4396 24.2852C18.4321 21.6789 20.2996 19.5602 23.2959 19.5527H23.3034C24.2634 19.5527 25.0921 19.7852 25.7971 20.1677V19.9089C25.7971 19.7964 25.8871 19.7027 26.0034 19.7027L28.4859 19.6952C28.5984 19.6952 28.6921 19.7852 28.6921 19.9014L28.7034 23.2127H28.7184C28.7296 23.5614 28.7971 24.0639 28.9171 24.5177C29.0109 24.8814 29.1421 25.2152 29.3034 25.4102C29.5096 25.6539 29.8359 25.6952 30.0196 25.6952H30.0309C30.3496 25.6952 30.6009 25.5564 30.6534 25.5002C30.8896 25.1627 30.9271 24.6939 30.9196 24.5139V24.4839L30.9159 24.3677C30.9084 21.0339 29.0934 17.4752 24.0196 17.4752H23.9934C19.9284 17.4827 17.0934 20.2277 17.1046 24.1502C17.1046 24.2852 17.1159 24.4164 17.1234 24.5477C17.1684 25.4214 17.3559 26.2277 17.6671 26.9514C18.6759 29.3027 21.0009 30.7914 23.9971 30.7914H24.0159C25.6921 30.7877 27.1959 30.3264 28.3659 29.4602L30.1134 31.8152C28.4371 33.0564 26.3334 33.7164 24.0234 33.7202H23.9934C19.3209 33.7202 15.7021 31.0014 14.5546 26.9589C14.3371 26.2014 14.2171 25.3952 14.1834 24.5552C14.1796 24.4239 14.1646 24.2927 14.1646 24.1577C14.1534 18.6039 18.2784 14.5577 23.9784 14.5464C23.9859 14.5427 23.9971 14.5427 24.0084 14.5427ZM23.2959 26.4527H23.3034C24.5859 26.4489 25.4109 25.6089 25.5271 24.5252C25.5384 24.4389 25.5496 24.3527 25.5496 24.2627C25.5459 23.0627 24.6796 22.0839 23.2959 22.0839H23.2884C21.9046 22.0877 21.0421 23.0702 21.0459 24.2739C21.0459 24.3639 21.0609 24.4502 21.0721 24.5364C21.1921 25.6164 22.0171 26.4527 23.2959 26.4527ZM24.0084 12.5439H23.9709C20.6934 12.5514 17.6934 13.7214 15.5296 15.8439C13.3509 17.9777 12.1584 20.9327 12.1621 24.1614C12.1621 24.2852 12.1696 24.4089 12.1771 24.5327L12.1846 24.6264C12.2259 25.6427 12.3721 26.6064 12.6309 27.5102C14.0521 32.5014 18.5109 35.7264 23.9934 35.7264C26.7684 35.7227 29.2809 34.9277 31.3021 33.4277C31.728 33.1117 32.011 32.6396 32.089 32.1151C32.1671 31.5905 32.0338 31.0565 31.7184 30.6302L31.5721 30.4352C32.8546 30.0977 33.9834 29.3514 34.6959 28.3277C34.7859 28.1964 34.8646 28.0614 34.9396 27.9264C35.7346 26.5652 35.8471 25.1964 35.8434 24.4989C35.8434 24.4014 35.8396 24.3227 35.8359 24.2627C35.7684 17.3552 30.9121 12.5439 24.0084 12.5439Z" fill="#FCC21B"/>
<path fill-rule="evenodd" clip-rule="evenodd" d="M33.8366 24.3113C33.7991 18.4538 29.8428 14.5275 23.9778 14.5425C18.2778 14.5538 14.1528 18.6 14.1641 24.1538C14.1641 24.2888 14.1791 24.42 14.1828 24.5513C14.2166 25.395 14.3366 26.1975 14.5541 26.955C15.7091 31.0088 19.3353 33.7275 24.0228 33.7163C26.3291 33.7125 28.4366 33.0525 30.1128 31.8113L28.3653 29.4563C27.1991 30.3225 25.6916 30.78 24.0153 30.7875C21.0116 30.795 18.6791 29.3025 17.6553 26.9475C17.3441 26.2238 17.1566 25.4138 17.1116 24.5438C17.1041 24.4125 17.0928 24.2813 17.0928 24.1463C17.0853 20.2238 19.9166 17.4825 23.9816 17.4713C29.0741 17.46 30.8966 21.0263 30.9041 24.3638L30.9078 24.48V24.51C30.9153 24.69 30.8778 25.1588 30.6416 25.4963C30.5891 25.5525 30.3378 25.6913 30.0191 25.6913C29.8391 25.6913 29.5016 25.6538 29.2916 25.4063C29.1266 25.2113 28.9991 24.8738 28.9053 24.5138C28.7853 24.06 28.7141 23.5575 28.7066 23.2088H28.6916L28.6803 19.8975C28.6803 19.785 28.5866 19.6913 28.4741 19.6913L25.9916 19.6988C25.8791 19.6988 25.7853 19.7925 25.7853 19.905V20.1638C25.0803 19.7813 24.2478 19.545 23.2841 19.5488C20.2916 19.5563 18.4241 21.675 18.4278 24.2813C18.4278 24.3713 18.4353 24.4575 18.4391 24.5438C18.4841 25.4363 18.7466 26.2575 19.2003 26.9475C20.0178 28.185 21.4428 28.9988 23.3028 28.9913C24.9491 28.9875 26.2353 28.3313 27.0753 27.3225C27.7878 28.1513 28.8566 28.6313 30.0228 28.6275C31.2491 28.6238 32.4303 28.0575 33.0416 27.1763C33.1016 27.09 33.1503 27 33.1991 26.91C33.7541 25.9613 33.8366 24.9788 33.8328 24.5025C33.8403 24.4275 33.8366 24.36 33.8366 24.3113ZM25.5266 24.525C25.4103 25.6088 24.5853 26.4488 23.3028 26.4525C22.0203 26.4563 21.1916 25.6163 21.0716 24.5363C21.0603 24.45 21.0453 24.3638 21.0453 24.2738C21.0416 23.07 21.9078 22.0875 23.2878 22.0838C24.6753 22.08 25.5453 23.0588 25.5491 24.2625C25.5491 24.3525 25.5341 24.4388 25.5266 24.525Z" fill="#ED6C30"/>
</svg>
