<svg width="42" height="44" viewBox="0 0 42 44" fill="none" xmlns="http://www.w3.org/2000/svg">
<path d="M7.4249 7.97464C8.7689 9.06584 9.2713 8.98264 11.7961 8.81304L35.5817 7.38584C36.0873 7.38584 35.6681 6.88344 35.4985 6.80024L31.5465 3.94264C30.7913 3.35384 29.7833 2.68184 27.8505 2.85144L4.8169 4.53144C3.9785 4.61464 3.8089 5.03384 4.1449 5.36984L7.4249 7.97464V7.97464ZM8.8521 13.517V38.5442C8.8521 39.8882 9.5241 40.3938 11.0377 40.3106L37.1817 38.797C38.6921 38.7138 38.8617 37.789 38.8617 36.6978V11.837C38.8617 10.749 38.4425 10.157 37.5177 10.2402L10.1961 11.837C9.1881 11.9202 8.8521 12.4258 8.8521 13.517V13.517ZM34.6601 14.861C34.8265 15.6162 34.6601 16.3714 33.9017 16.4578L32.6409 16.7074V35.1842C31.5497 35.773 30.5385 36.1122 29.6969 36.1122C28.3529 36.1122 28.0169 35.6898 27.0089 34.429L18.7689 21.4946V34.0098L21.3769 34.5986C21.3769 34.5986 21.3769 36.109 19.2745 36.109L13.4761 36.445C13.3065 36.109 13.4761 35.2706 14.0649 35.101L15.5753 34.685V18.1346L13.4793 17.9682C13.3097 17.213 13.7289 16.1218 14.9065 16.0354L21.1273 15.6194L29.7033 28.7202V17.1298L27.5177 16.877C27.3481 15.9522 28.0201 15.2802 28.8617 15.197L34.6633 14.861H34.6601ZM2.8841 2.26264L26.8425 0.499442C29.7833 0.243442 30.5385 0.416242 32.3881 1.76024L40.0361 7.13624C41.3001 8.05784 41.7193 8.31064 41.7193 9.31864V38.797C41.7193 40.6466 41.0473 41.741 38.6921 41.9042L10.8713 43.5842C9.1049 43.6706 8.2633 43.4178 7.3385 42.2402L1.7065 34.9346C0.698497 33.5906 0.279297 32.5826 0.279297 31.405V5.20024C0.279297 3.68984 0.951297 2.42904 2.8841 2.26264V2.26264Z" fill="#0B0E18"/>
</svg>
