<svg width="48" height="48" viewBox="0 0 48 48" fill="none" xmlns="http://www.w3.org/2000/svg">
<path d="M10.4249 9.97464C11.7689 11.0658 12.2713 10.9826 14.7961 10.813L38.5817 9.38584C39.0873 9.38584 38.6681 8.88344 38.4985 8.80024L34.5465 5.94264C33.7913 5.35384 32.7833 4.68184 30.8505 4.85144L7.8169 6.53144C6.9785 6.61464 6.8089 7.03384 7.1449 7.36984L10.4249 9.97464V9.97464ZM11.8521 15.517V40.5442C11.8521 41.8882 12.5241 42.3938 14.0377 42.3106L40.1817 40.797C41.6921 40.7138 41.8617 39.789 41.8617 38.6978V13.837C41.8617 12.749 41.4425 12.157 40.5177 12.2402L13.1961 13.837C12.1881 13.9202 11.8521 14.4258 11.8521 15.517V15.517ZM37.6601 16.861C37.8265 17.6162 37.6601 18.3714 36.9017 18.4578L35.6409 18.7074V37.1842C34.5497 37.773 33.5385 38.1122 32.6969 38.1122C31.3529 38.1122 31.0169 37.6898 30.0089 36.429L21.7689 23.4946V36.0098L24.3769 36.5986C24.3769 36.5986 24.3769 38.109 22.2745 38.109L16.4761 38.445C16.3065 38.109 16.4761 37.2706 17.0649 37.101L18.5753 36.685V20.1346L16.4793 19.9682C16.3097 19.213 16.7289 18.1218 17.9065 18.0354L24.1273 17.6194L32.7033 30.7202V19.1298L30.5177 18.877C30.3481 17.9522 31.0201 17.2802 31.8617 17.197L37.6633 16.861H37.6601ZM5.8841 4.26264L29.8425 2.49944C32.7833 2.24344 33.5385 2.41624 35.3881 3.76024L43.0361 9.13624C44.3001 10.0578 44.7193 10.3106 44.7193 11.3186V40.797C44.7193 42.6466 44.0473 43.741 41.6921 43.9042L13.8713 45.5842C12.1049 45.6706 11.2633 45.4178 10.3385 44.2402L4.7065 36.9346C3.6985 35.5906 3.2793 34.5826 3.2793 33.405V7.20024C3.2793 5.68984 3.9513 4.42904 5.8841 4.26264V4.26264Z" fill="white"/>
</svg>
