<svg width="48" height="48" viewBox="0 0 48 48" fill="none" xmlns="http://www.w3.org/2000/svg">
<g clip-path="url(#clip0_272_1424)">
<path d="M10.0942 30.2476C10.0942 33.0286 7.84667 35.2764 5.06567 35.2764C2.28467 35.2764 0.0371094 33.0286 0.0371094 30.2476C0.0371094 27.4668 2.28467 25.2192 5.06586 25.2192H10.094V30.2478L10.0942 30.2476ZM12.6086 30.2476C12.6086 27.4668 14.8562 25.2192 17.6372 25.2192C20.4182 25.2192 22.6657 27.4668 22.6657 30.2478V42.8191C22.6657 45.6001 20.4182 47.8479 17.637 47.8479C14.8564 47.8479 12.6086 45.6001 12.6086 42.8191V30.2478V30.2476Z" fill="#E01E5A"/>
<path d="M17.6381 10.0571C14.8571 10.0571 12.6094 7.80956 12.6094 5.02856C12.6094 2.24756 14.8573 0 17.6381 0C20.4189 0 22.6667 2.24756 22.6667 5.02856V10.0573H17.6379L17.6381 10.0571ZM17.6381 12.6096C20.4191 12.6096 22.6667 14.8571 22.6667 17.6381C22.6667 20.4191 20.4191 22.6667 17.6379 22.6667H5.02875C2.24756 22.6667 0 20.4191 0 17.6379C0 14.8573 2.24756 12.6096 5.02856 12.6096H17.6379H17.6381Z" fill="#36C5F0"/>
<path d="M37.7903 17.6381C37.7903 14.8571 40.0378 12.6094 42.8186 12.6094C45.5996 12.6094 47.8474 14.8571 47.8474 17.6381C47.8474 20.4191 45.5996 22.6667 42.8186 22.6667H37.7903V17.6379V17.6381ZM35.2759 17.6381C35.2759 20.4191 33.0281 22.6667 30.2471 22.6667C27.4663 22.6667 25.2188 20.4191 25.2188 17.6379V5.02875C25.2188 2.24756 27.4663 0 30.2471 0C33.0279 0 35.2757 2.24756 35.2757 5.02856V17.6379L35.2759 17.6381Z" fill="#2EB67D"/>
<path d="M30.2471 37.7907C33.0281 37.7907 35.2759 40.0383 35.2759 42.8191C35.2759 45.6001 33.0281 47.8479 30.2471 47.8479C27.4663 47.8479 25.2188 45.6001 25.2188 42.8191V37.7907H30.2473H30.2471ZM30.2471 35.2764C27.4663 35.2764 25.2188 33.0286 25.2188 30.2476C25.2188 27.4668 27.4663 25.2192 30.2473 25.2192H42.8567C45.6377 25.2192 47.8854 27.4668 47.8854 30.2478C47.8854 33.0286 45.6377 35.2764 42.8567 35.2764H30.2473H30.2471Z" fill="#ECB22E"/>
</g>
<defs>
<clipPath id="clip0_272_1424">
<rect width="48" height="48" fill="white"/>
</clipPath>
</defs>
</svg>
