<svg width="48" height="46" viewBox="0 0 48 46" fill="none" xmlns="http://www.w3.org/2000/svg">
<g clip-path="url(#clip0_272_1429)">
<path d="M33.4815 17.3379H45.88C47.0515 17.3379 48.001 18.2876 48.001 19.4589V30.7522C48.001 35.0572 44.511 38.5473 40.206 38.5473H40.1691C35.8641 38.5479 32.3736 35.0585 32.373 30.7533V18.4466C32.373 18.301 32.4017 18.1568 32.4574 18.0223C32.5131 17.8878 32.5947 17.7656 32.6977 17.6626C32.8006 17.5597 32.9228 17.478 33.0573 17.4223C33.1918 17.3666 33.336 17.3379 33.4815 17.3379Z" fill="#5059C9"/>
<path d="M41.8593 15.1052C44.6335 15.1052 46.8826 12.8562 46.8826 10.0819C46.8826 7.30761 44.6335 5.05859 41.8593 5.05859C39.085 5.05859 36.8359 7.30761 36.8359 10.0819C36.8359 12.8562 39.085 15.1052 41.8593 15.1052Z" fill="#5059C9"/>
<path d="M26.2324 15.1055C30.2397 15.1055 33.4883 11.8569 33.4883 7.84963C33.4883 3.84232 30.2397 0.59375 26.2324 0.59375C22.2251 0.59375 18.9766 3.84232 18.9766 7.84963C18.9766 11.8569 22.2251 15.1055 26.2324 15.1055Z" fill="#7B83EB"/>
<path d="M35.9081 17.3379H15.4422C14.2848 17.3666 13.3692 18.3271 13.3961 19.4846V32.3653C13.2344 39.311 18.7295 45.075 25.6751 45.245C32.6206 45.075 38.1157 39.311 37.9542 32.3653V19.4846C37.9811 18.3271 37.0655 17.3666 35.9081 17.3379Z" fill="#7B83EB"/>
<path opacity="0.1" d="M26.7907 17.3379V35.3881C26.788 35.793 26.6658 36.188 26.4394 36.5237C26.213 36.8593 25.8925 37.1206 25.5181 37.2748C25.2744 37.3779 25.0124 37.431 24.7479 37.431H14.3774C14.2323 37.0625 14.0984 36.6941 13.9867 36.3148C13.5959 35.0338 13.3966 33.7022 13.3951 32.363V19.4812C13.3683 18.3256 14.2824 17.3666 15.4379 17.3381H26.7905L26.7907 17.3379Z" fill="black"/>
<path opacity="0.2" d="M25.6739 17.3379V36.5045C25.6739 36.7691 25.6209 37.031 25.5177 37.2748C25.3636 37.6491 25.1023 37.9696 24.7666 38.196C24.431 38.4224 24.036 38.5446 23.6311 38.5473H14.902C14.7123 38.1789 14.5336 37.8105 14.3774 37.431C14.2274 37.0661 14.0969 36.6935 13.9867 36.3148C13.5959 35.0338 13.3966 33.7022 13.3951 32.363V19.4812C13.3683 18.3256 14.2824 17.3666 15.4379 17.3381H25.6741L25.6739 17.3379Z" fill="black"/>
<path opacity="0.2" d="M25.6741 17.3379V34.272C25.6657 35.3966 24.7561 36.3063 23.6313 36.3148H13.9867C13.5959 35.0338 13.3966 33.7022 13.3951 32.363V19.4812C13.3683 18.3256 14.2824 17.3666 15.4379 17.3381H25.6741V17.3379Z" fill="black"/>
<path opacity="0.2" d="M24.5579 17.3379V34.272C24.5493 35.3966 23.6397 36.3063 22.5151 36.3148H13.9867C13.5959 35.0338 13.3966 33.7022 13.3951 32.363V19.4812C13.3683 18.3256 14.2824 17.3666 15.4379 17.3381H24.5579V17.3379Z" fill="black"/>
<path opacity="0.1" d="M26.7908 11.5667V15.0829C26.601 15.0942 26.4224 15.1054 26.2326 15.1054C26.0429 15.1054 25.8642 15.0942 25.6744 15.0829C25.2977 15.058 24.924 14.9982 24.5582 14.9044C23.4438 14.6405 22.4077 14.1166 21.5346 13.3755C20.6616 12.6343 19.9763 11.6971 19.5349 10.6403C19.3809 10.2803 19.2613 9.90649 19.1777 9.52393H24.748C25.8743 9.52824 26.7865 10.4402 26.7908 11.5667Z" fill="black"/>
<path opacity="0.2" d="M25.6745 12.6832V15.0833C25.2977 15.0583 24.924 14.9985 24.5583 14.9047C23.4439 14.6408 22.4078 14.1169 21.5348 13.3757C20.6617 12.6346 19.9765 11.6974 19.5352 10.6406H23.6317C24.7582 10.6447 25.6702 11.5569 25.6745 12.6832Z" fill="black"/>
<path opacity="0.2" d="M25.6745 12.6832V15.0833C25.2977 15.0583 24.924 14.9985 24.5583 14.9047C23.4439 14.6408 22.4078 14.1169 21.5348 13.3757C20.6617 12.6346 19.9765 11.6974 19.5352 10.6406H23.6317C24.7582 10.6447 25.6702 11.5569 25.6745 12.6832Z" fill="black"/>
<path opacity="0.2" d="M24.5585 12.6829V14.9044C23.444 14.6405 22.4079 14.1166 21.5348 13.3754C20.6618 12.6342 19.9765 11.6969 19.5352 10.6401H22.5157C23.6422 10.6444 24.5542 11.5566 24.5585 12.6829Z" fill="black"/>
<path d="M2.04619 10.6403H22.5118C23.6421 10.6403 24.5582 11.5564 24.5582 12.6865V33.1523C24.5582 34.2824 23.6421 35.1985 22.512 35.1985H2.04619C0.916125 35.1985 0 34.2824 0 33.1523V12.6867C0 11.5563 0.916125 10.6401 2.04619 10.6401V10.6403Z" fill="url(#paint0_linear_272_1429)"/>
<path d="M17.6643 18.4297H13.5731V29.5702H10.9667V18.4297H6.89453V16.2686H17.6643V18.4297Z" fill="white"/>
</g>
<defs>
<linearGradient id="paint0_linear_272_1429" x1="4.26625" y1="9.04139" x2="20.2921" y2="36.7972" gradientUnits="userSpaceOnUse">
<stop stop-color="#5A62C3"/>
<stop offset="0.5" stop-color="#4D55BD"/>
<stop offset="1" stop-color="#3940AB"/>
</linearGradient>
<clipPath id="clip0_272_1429">
<rect width="48" height="44.8125" fill="white" transform="translate(0 0.59375)"/>
</clipPath>
</defs>
</svg>
