<svg width="40" height="34" viewBox="0 0 40 34" fill="none" xmlns="http://www.w3.org/2000/svg">
<path d="M40 4.64842C38.5022 5.31197 36.9134 5.74753 35.2866 5.94061C36.9811 4.92498 38.2822 3.3167 38.8948 1.40045C37.284 2.35636 35.5216 3.02987 33.6838 3.39186C32.1867 1.79701 30.0541 0.800293 27.6936 0.800293C23.1614 0.800293 19.4869 4.47467 19.4869 9.00654C19.4869 9.64982 19.5595 10.2761 19.6994 10.8769C12.8791 10.5345 6.83219 7.26748 2.78453 2.30248C2.07828 3.51451 1.67359 4.92436 1.67359 6.42811C1.67359 9.27529 3.1225 11.787 5.32438 13.2587C4.02117 13.2179 2.74664 12.8659 1.60719 12.2322C1.60672 12.2665 1.60672 12.3009 1.60672 12.3354C1.60672 16.3115 4.43547 19.6284 8.18953 20.3823C6.98107 20.711 5.71348 20.7591 4.48359 20.5229C5.52781 23.7833 8.55859 26.1558 12.1495 26.2222C9.34094 28.4231 5.80234 29.7351 1.95766 29.7351C1.29516 29.7351 0.642031 29.6962 0 29.6204C3.63172 31.9489 7.94531 33.3075 12.5797 33.3075C27.6745 33.3075 35.9287 20.8026 35.9287 9.95826C35.9287 9.60232 35.9209 9.24842 35.905 8.89654C37.5116 7.73511 38.8983 6.29657 40 4.64842Z" fill="#58C5AC"/>
</svg>
