<svg width="40" height="34" viewBox="0 0 40 34" fill="none" xmlns="http://www.w3.org/2000/svg">
<path d="M40 4.64793C38.5022 5.31149 36.9134 5.74704 35.2866 5.94012C36.9811 4.92449 38.2822 3.31621 38.8948 1.39996C37.284 2.35588 35.5216 3.02938 33.6838 3.39137C32.1867 1.79652 30.0541 0.799805 27.6936 0.799805C23.1614 0.799805 19.4869 4.47418 19.4869 9.00605C19.4869 9.64933 19.5595 10.2756 19.6994 10.8764C12.8791 10.534 6.83219 7.26699 2.78453 2.30199C2.07828 3.51402 1.67359 4.92387 1.67359 6.42762C1.67359 9.2748 3.1225 11.7865 5.32438 13.2582C4.02117 13.2174 2.74664 12.8654 1.60719 12.2317C1.60672 12.2661 1.60672 12.3004 1.60672 12.335C1.60672 16.3111 4.43547 19.6279 8.18953 20.3818C6.98107 20.7105 5.71348 20.7586 4.48359 20.5225C5.52781 23.7828 8.55859 26.1553 12.1495 26.2217C9.34094 28.4226 5.80234 29.7346 1.95766 29.7346C1.29516 29.7346 0.642031 29.6957 0 29.62C3.63172 31.9484 7.94531 33.307 12.5797 33.307C27.6745 33.307 35.9287 20.8021 35.9287 9.95777C35.9287 9.60184 35.9209 9.24793 35.905 8.89605C37.5116 7.73462 38.8983 6.29608 40 4.64793Z" fill="white"/>
</svg>
