<svg width="43" height="49" viewBox="0 0 43 49" fill="none" xmlns="http://www.w3.org/2000/svg">
<path d="M23.1874 3.00396C25.6194 8.36596 28.6054 14.948 30.8454 17.564C31.2834 16.546 31.2354 14.844 31.7354 10.688C32.1874 6.93396 35.2834 6.57796 36.6114 6.84396C39.5474 7.45596 40.4434 10.434 40.3454 11.532C40.1894 13.282 40.1814 13.222 39.8614 17.452C39.3914 23.64 41.7814 28.312 42.0014 33.61C42.0014 43.594 33.2514 48.5 27.1254 48.5C22.2254 48.5 17.3254 45.364 15.4854 43.796L6.29739 35.406C5.17339 34.532 2.39339 31.646 1.17339 29.986C-2.15261 25.46 2.65739 22.344 5.36139 23.126C5.14739 22.962 3.86539 20.88 3.25139 19.86C1.60139 16.546 3.25139 14.34 4.47139 13.734C7.23539 12.36 9.26739 13.906 9.90739 14.75C9.66339 14.334 8.89539 12.65 7.65739 9.56196C6.41939 6.47596 8.41339 4.56796 9.56339 3.99996C12.0634 2.84396 14.4394 4.31196 15.0334 5.62596C15.3234 6.26596 16.8934 9.70196 17.5734 11.218C17.0594 9.96196 16.1274 7.46596 15.7974 6.31196C15.1414 3.59196 16.7194 1.72996 17.7194 1.24996C19.1114 0.58396 22.0114 0.40996 23.1594 2.93796L23.1874 3.00396V3.00396Z" fill="#FFC83D"/>
</svg>
