<svg width="48" height="47" viewBox="0 0 48 47" fill="none" xmlns="http://www.w3.org/2000/svg">
<g clip-path="url(#clip0_272_1407)">
<path d="M40.0312 0.125H7.96875C3.56773 0.125 0 3.69273 0 8.09375V38.9562C0 43.3573 3.56773 46.925 7.96875 46.925H40.0312C44.4323 46.925 48 43.3573 48 38.9562V8.09375C48 3.69273 44.4323 0.125 40.0312 0.125Z" fill="#470137"/>
<path d="M25.2334 12.4325L19.2441 22.318L25.6519 32.8152C25.6931 32.8887 25.7046 32.975 25.6841 33.0567C25.6742 33.0916 25.6528 33.1002 25.62 33.1015L25.5836 33.101L25.5394 33.0998C25.5154 33.0998 25.4886 33.101 25.4587 33.1058H20.8387L20.748 33.1043C20.499 33.0978 20.3196 33.0622 20.2102 32.8795C19.7828 32.0467 19.3534 31.2149 18.9221 30.3841C18.5363 29.6431 18.1401 28.9075 17.7334 28.1778L17.5537 27.8564C17.0673 26.9919 16.5897 26.1225 16.1209 25.2483H16.0886C15.6557 26.1133 15.2102 26.9721 14.7523 27.8242C14.2905 28.6829 13.8343 29.5364 13.3837 30.3841C12.9329 31.2325 12.4714 32.0751 11.9992 32.9118C11.9233 33.0824 11.7971 33.118 11.6214 33.1238L11.5483 33.125H7.13699L7.11787 33.1255L7.05487 33.1312C7.01981 33.1332 6.99881 33.1257 6.99206 33.0728C6.97996 32.9943 6.99717 32.9141 7.04043 32.8475L13.2549 22.64L7.20131 12.4006C7.13699 12.3151 7.12631 12.2453 7.16906 12.1913C7.19282 12.1638 7.22265 12.1422 7.25621 12.1282C7.28976 12.1142 7.3261 12.1082 7.36237 12.1107H11.9025C12.0015 12.1053 12.1005 12.1218 12.1924 12.1591C12.2692 12.2028 12.3354 12.2633 12.3855 12.3363C12.7719 13.195 13.2013 14.0538 13.6736 14.9122C14.1423 15.7651 14.6199 16.6131 15.1065 17.456C15.5856 18.2858 16.0314 19.1344 16.4428 19.9998H16.4751C16.8967 19.1346 17.3314 18.2759 17.7791 17.4239C18.2188 16.5867 18.6697 15.7439 19.1314 14.896C19.5871 14.059 20.0326 13.2165 20.4677 12.3685C20.4924 12.289 20.5367 12.217 20.5965 12.1591C20.676 12.1188 20.7654 12.102 20.8541 12.1107H25.0723C25.1111 12.1011 25.152 12.1042 25.1888 12.1198C25.2256 12.1354 25.2563 12.1625 25.2764 12.197C25.2965 12.2316 25.3048 12.2717 25.3002 12.3114C25.2955 12.3511 25.278 12.3882 25.2504 12.4171L25.2336 12.4328L25.2334 12.4325ZM34.6965 33.5212L34.4745 33.5236C32.9924 33.5462 31.5239 33.2382 30.1757 32.6221C28.9198 32.0408 27.8699 31.092 27.165 29.9011C26.4542 28.7206 26.0893 27.2495 26.0709 25.4883L26.0702 25.3448C26.0581 23.867 26.4358 22.4121 27.1652 21.1267C27.8951 19.8544 28.9593 18.8062 30.2424 18.0955L30.3529 18.0355C31.7479 17.2627 33.4331 16.8762 35.4082 16.8762L35.4945 16.8772L35.5931 16.8803L35.7037 16.8852L35.8267 16.8923L36.0334 16.907L36.2674 16.9257L36.4386 16.9407V10.5972C36.4386 10.4472 36.5031 10.3718 36.6317 10.3718H40.689C40.7152 10.3681 40.742 10.3705 40.7671 10.3789C40.7923 10.3872 40.8151 10.4013 40.8339 10.4201C40.8526 10.4388 40.8667 10.4617 40.8751 10.4868C40.8835 10.512 40.8859 10.5387 40.8821 10.565V29.5953C40.8821 29.9148 40.8945 30.259 40.9192 30.6273L40.9792 31.4626L41.0111 31.9458C41.0151 32.0127 40.9987 32.0793 40.9643 32.1367C40.9298 32.1942 40.8787 32.2399 40.8178 32.2679C39.7711 32.7044 38.6809 33.0282 37.5656 33.2337C36.6188 33.4085 35.6592 33.5046 34.6965 33.5212ZM36.4386 29.5308V20.7402C36.2645 20.6931 36.0868 20.6608 35.9074 20.6437C35.688 20.6216 35.4676 20.6108 35.2472 20.6114C34.4658 20.6037 33.6936 20.7802 32.9932 21.1267C32.311 21.4658 31.7285 21.9762 31.3027 22.6079C30.8777 23.2297 30.6577 24.0415 30.6433 25.0435L30.6426 25.1517C30.6269 25.8536 30.7415 26.5523 30.9806 27.2123C31.1753 27.7443 31.483 28.2277 31.8825 28.6293C32.2648 28.9987 32.7278 29.2742 33.2347 29.4342C33.7703 29.6076 34.3301 29.6947 34.893 29.692C35.1934 29.692 35.4724 29.6812 35.7302 29.6596C35.9358 29.6441 36.1396 29.6102 36.3392 29.5583L36.4386 29.5308Z" fill="#FF61F6"/>
</g>
<defs>
<clipPath id="clip0_272_1407">
<rect width="48" height="46.875" fill="white" transform="translate(0 0.125)"/>
</clipPath>
</defs>
</svg>
